<svg width="140" height="140" viewBox="0 0 140 140" fill="none" xmlns="http://www.w3.org/2000/svg">
<path d="M40.9967 19.8562L69.9026 3.44955L98.8086 19.8562L127.454 36.723L127.718 70L127.454 103.277L98.8086 120.144L69.9026 136.55L40.9967 120.144L12.3516 103.277L12.0874 70L12.3516 36.723L40.9967 19.8562Z" fill="#3F7CA6" stroke="#F5F8FA" stroke-width="6"/>
<path d="M96.8655 49.7778C96.8655 76.4101 75.3056 98 48.7103 98C47.5104 98 46.3208 97.9561 45.1429 97.8696C43.7911 97.7704 43.1152 97.7209 42.5 97.3663C41.9904 97.0726 41.5071 96.5518 41.2517 96.0213C40.9434 95.3811 40.9434 94.6341 40.9434 93.1404V84.3755C40.9434 83.1192 40.9434 82.4911 41.1498 81.9529C41.3322 81.4772 41.6284 81.0538 42.0124 80.7196C42.4471 80.3413 43.0366 80.1267 44.2155 79.6973L54.1784 76.0695C55.55 75.5701 56.2358 75.3203 56.8864 75.3626C57.4602 75.4 58.0123 75.5963 58.4813 75.9292C59.0133 76.3065 59.3887 76.9331 60.1396 78.1866L62.6908 82.4444C70.9235 78.7108 77.5975 72.0188 81.3316 63.7778L77.0796 61.223C75.8279 60.4711 75.2022 60.0951 74.8253 59.5624C74.4929 59.0927 74.2969 58.5398 74.2596 57.9653C74.2173 57.3137 74.4668 56.627 74.9654 55.2535L78.5883 45.2767C79.017 44.0961 79.2314 43.5059 79.6092 43.0705C79.9428 42.686 80.3657 42.3894 80.8407 42.2067C81.3782 42 82.0054 42 83.2599 42H92.0127C93.5042 42 94.2502 42 94.8896 42.3088C95.4193 42.5645 95.9393 43.0485 96.2326 43.5588C96.5868 44.1749 96.6362 44.8517 96.7353 46.2054C96.8217 47.3849 96.8655 48.5762 96.8655 49.7778Z" stroke="white" stroke-width="4" stroke-linecap="round" stroke-linejoin="round"/>
</svg>
