<svg width="140" height="140" viewBox="0 0 140 140" fill="none" xmlns="http://www.w3.org/2000/svg">
<path d="M40.9948 19.8562L69.9007 3.44955L98.8066 19.8562L127.452 36.723L127.716 70L127.452 103.277L98.8066 120.144L69.9007 136.55L40.9948 120.144L12.3496 103.277L12.0855 70L12.3496 36.723L40.9948 19.8562Z" fill="#3F7CA6" stroke="#F5F8FA" stroke-width="6"/>
<path d="M44.5664 60.154L64.5872 76.2329C68.0317 78.9992 72.7676 78.9992 76.2121 76.2329L96.2329 60.1538" stroke="white" stroke-width="4" stroke-linecap="round" stroke-linejoin="round"/>
<path d="M39.9424 61.0514C39.9424 58.7016 41.2313 56.5365 43.3096 55.3953L66.2221 42.8142C68.1994 41.7286 70.6033 41.7286 72.5806 42.8142L95.4932 55.3953C97.5713 56.5365 98.8603 58.7016 98.8603 61.0514V86.3605C98.8603 89.934 95.9295 92.8308 92.3139 92.8308H46.4888C42.8733 92.8308 39.9424 89.934 39.9424 86.3605V61.0514Z" stroke="white" stroke-width="4" stroke-linecap="round"/>
</svg>
