<svg width="140" height="140" viewBox="0 0 140 140" fill="none" xmlns="http://www.w3.org/2000/svg">
<path d="M40.9948 19.8562L69.9007 3.44955L98.8066 19.8562L127.452 36.723L127.716 70L127.452 103.277L98.8066 120.144L69.9007 136.55L40.9948 120.144L12.3496 103.277L12.0855 70L12.3496 36.723L40.9948 19.8562Z" fill="#3F7CA6" stroke="#F5F8FA" stroke-width="6"/>
<g clip-path="url(#clip0_233_301)">
<path d="M68.8051 103.267C52.2121 103.267 35.3574 99.7078 35.3574 92.9032C35.3574 86.8313 48.3387 84.3188 53.8871 83.5336H54.0965C54.8816 83.5336 55.5621 84.1094 55.6668 84.8946C55.7191 85.3133 55.6145 85.7321 55.3527 86.0461C55.091 86.3602 54.7246 86.6219 54.3059 86.6742C42.7379 88.3492 38.4457 91.3852 38.4457 92.9555C38.4457 95.8867 50.2754 100.179 68.7527 100.179C87.2301 100.179 99.0598 95.8867 99.0598 92.9555C99.0598 91.3852 94.7152 88.3492 83.0426 86.6742C82.6238 86.6219 82.2574 86.4125 81.9957 86.0461C81.734 85.7321 81.6293 85.3133 81.6816 84.8946C81.7863 84.1094 82.4668 83.5336 83.252 83.5336H83.4613C89.0621 84.3188 102.148 86.8313 102.148 92.9032C102.2 99.6555 85.398 103.267 68.8051 103.267ZM67.7059 92.1703C66.9207 91.4375 48.8098 74.3211 48.8098 57.5188C48.8098 46.5266 57.7605 37.5758 68.7527 37.5758C79.7449 37.5758 88.6957 46.5266 88.6957 57.5188C88.6957 73.85 70.5848 91.3852 69.7996 92.118L68.7527 93.1649L67.7059 92.1703ZM68.8051 40.7164C59.5402 40.7164 52.0027 48.2539 52.0027 57.5188C52.0027 70.6571 64.827 84.7375 68.8051 88.768C72.8355 84.6328 85.6598 70.2906 85.6598 57.5188C85.6074 48.3063 78.0699 40.7164 68.8051 40.7164ZM68.8051 66.4172C63.5707 66.4172 59.3309 62.1774 59.3309 56.943C59.3309 51.7086 63.5707 47.4688 68.8051 47.4688C74.0395 47.4688 78.2793 51.7086 78.2793 56.943C78.2793 62.1774 74.0395 66.4172 68.8051 66.4172ZM68.8051 50.6094C65.298 50.6094 62.4715 53.436 62.4715 56.943C62.4715 60.45 65.298 63.2766 68.8051 63.2766C72.3121 63.2766 75.1387 60.45 75.1387 56.943C75.1387 53.436 72.2598 50.6094 68.8051 50.6094Z" fill="white"/>
</g>
<defs>
<clipPath id="clip0_233_301">
<rect width="66.9068" height="67" fill="white" transform="translate(35.9482 37)"/>
</clipPath>
</defs>
</svg>
