<svg width="22" height="22" viewBox="0 0 22 22" fill="none" xmlns="http://www.w3.org/2000/svg">
<path fill-rule="evenodd" clip-rule="evenodd" d="M7.40912 2.94118C6.73745 2.44605 6.28514 2.33427 6.04244 2.38163C5.04119 2.57703 4.44767 2.9668 3.64355 3.77091C2.54593 4.86851 2.01336 5.68808 2.24532 6.9307C2.51237 8.36137 3.81708 10.5449 7.41309 14.1409C11.0089 17.7367 13.2056 19.0552 14.6443 19.3278C15.311 19.4542 15.8187 19.3554 16.2743 19.131C16.7614 18.8911 17.2304 18.4873 17.7683 17.9259C18.2454 17.428 18.5349 17.0805 18.7375 16.7386C18.9304 16.4129 19.0673 16.0528 19.1729 15.5119C19.2203 15.2692 19.1086 14.8169 18.6133 14.1451C18.1515 13.5186 17.4999 12.8964 16.8975 12.3885C16.5 12.0533 15.885 12.0319 15.3882 12.4038L13.8698 13.5405C12.5003 14.5657 10.5866 14.4188 9.37827 13.2105L8.34351 12.1758C7.13521 10.9675 6.98835 9.05375 8.01359 7.6842L9.15017 6.16593C9.52208 5.66912 9.50072 5.05411 9.16551 4.65661C8.65764 4.05434 8.03551 3.40292 7.40912 2.94118ZM8.59585 1.33131C9.40529 1.92799 10.1443 2.71487 10.6945 3.36729C11.6973 4.55651 11.6155 6.21001 10.7512 7.36449L9.61466 8.88277C9.19121 9.44843 9.24594 10.2498 9.75772 10.7616L10.7925 11.7963C11.3043 12.3081 12.1056 12.3628 12.6713 11.9394L14.1896 10.8028C15.3441 9.93855 16.9975 9.85671 18.1867 10.8594C18.8393 11.4096 19.6263 12.1487 20.2232 12.9583C20.7866 13.7226 21.3535 14.781 21.1358 15.8953C20.9961 16.6109 20.7908 17.1965 20.4581 17.7581C20.135 18.3035 19.7152 18.7849 19.2124 19.3096C18.6297 19.9177 17.9655 20.5275 17.158 20.9252C16.3191 21.3384 15.3709 21.5012 14.2718 21.2928C12.1788 20.8961 9.60394 19.1602 5.99888 15.5552C2.39407 11.9503 0.669189 9.38653 0.279276 7.29769C-0.145738 5.02081 1.03734 3.54868 2.22934 2.35669C3.21393 1.37211 4.14754 0.713699 5.65936 0.418661C6.77349 0.201234 7.8317 0.76801 8.59585 1.33131Z" fill="white"/>
</svg>
